#!OML:ASF X:\für Bonn\!DataBase\2005_08_11_Bastian_Final\c3d\Bastian.ASF
:FULLY-SPECIFIED
:DEGREES
108
root 5.30767 16.7822 -19.2118 120.178 4.02479 -187.654
lowerback 42.978 0.356141 0.40938
upperback 21.8821 15.02 -8.39212
thorax 7.29042 15.042 -12.9416
lowerneck 18.3608 -12.3597 -13.879
upperneck 4.41267 -20.2136 17.9325
head 1.64387 -11.0415 8.00761
rclavicle -8.18993e-014 6.52014e-014
rhumerus 6.53062 13.4714 -76.9105
rradius 114.756
rwrist 6.41162
rhand -18.7781 2.88607
rfingers 7.12502
rthumb 7.51931 -26.9603
lclavicle -8.18993e-014 6.52014e-014
lhumerus -43.008 -6.00612 92.4647
lradius 19.5431
lwrist 18.2949
lhand -11.0987 -33.3635
lfingers 7.12502
lthumb 14.9254 -3.92123
rfemur 44.8172 4.65368 21.0051
rtibia 29.1954
rfoot -3.27665 4.34739
rtoes 8.08543
lfemur -72.6322 2.58536 2.15297
ltibia 38.5611
lfoot -13.3838 9.64776
ltoes -25.6819
109
root 5.24495 16.6969 -19.4077 119.56 4.45884 -187.603
lowerback 42.9904 0.128671 0.576097
upperback 22.0838 14.8524 -8.45649
thorax 7.53081 15.0416 -13.0137
lowerneck 18.8543 -12.2047 -13.7833
upperneck 3.75097 -19.9287 18.0967
head 1.3331 -10.9297 8.13165
rclavicle 2.3059e-014 4.13472e-014
rhumerus 4.982 13.2702 -76.752
rradius 114.42
rwrist 5.82018
rhand -18.6837 2.91296
rfingers 7.12502
rthumb 7.6105 -26.9301
lclavicle 2.3059e-014 4.13472e-014
lhumerus -43.1686 -4.04459 93.2837
lradius 17.7113
lwrist 19.3821
lhand -10.6942 -31.9533
lfingers 7.12502
lthumb 15.3151 -2.54039
rfemur 45.4092 4.59931 20.8409
rtibia 30.4363
rfoot -4.14672 4.72561
rtoes 7.79656
lfemur -74.0705 5.70748 -2.34812
ltibia 41.8366
lfoot -8.75006 7.9698
ltoes -23.9699
110
root 5.19579 16.6518 -19.5395 118.98 4.75563 -187.624
lowerback 42.9109 -0.0704874 0.670154
upperback 22.2956 14.7047 -8.53112
thorax 7.8076 15.0483 -13.0485
lowerneck 19.5253 -12.0312 -13.6583
upperneck 2.88302 -19.6134 18.4724
head 0.946869 -10.8228 8.34299
rclavicle 6.2816e-014 -1.7334e-013
rhumerus 3.11993 13.1615 -76.4993
rradius 114.246
rwrist 5.29801
rhand -18.6888 2.80661
rfingers 7.12502
rthumb 7.60554 -27.0366
lclavicle 6.2816e-014 -1.7334e-013
lhumerus -43.3444 -2.04365 93.9946
lradius 16.2605
lwrist 20.6078
lhand -10.6917 -30.6847
lfingers 7.12502
lthumb 15.3175 -1.27195
rfemur 45.7279 4.55515 20.5812
rtibia 31.7601
rfoot -4.98402 5.00702
rtoes 7.52505
lfemur -74.928 7.4596 -5.21425
ltibia 45.3585
lfoot -5.4191 8.21641
ltoes -23.5569
111
root 5.14739 16.6009 -19.6761 118.483 4.9664 -187.672
lowerback 42.6243 -0.246406 0.693949
upperback 22.5554 14.5667 -8.60876
thorax 8.1957 15.054 -13.0124
lowerneck 20.2767 -11.8606 -13.4492
upperneck 1.86307 -19.2634 18.9133
head 0.495787 -10.7081 8.57896
rclavicle 5.00937e-014 3.65764e-014
rhumerus 1.02459 13.2657 -76.1524
rradius 114.26
rwrist 4.936
rhand -18.8699 2.60575
rfingers 7.12502
rthumb 7.4307 -27.2438
lclavicle 5.00937e-014 3.65764e-014
lhumerus -43.45 0.264468 94.3587
lradius 15.14
lwrist 21.522
lhand -10.9676 -29.8123
lfingers 7.12502
lthumb 15.0517 -0.37949
rfemur 45.9394 4.52749 20.2402
rtibia 33.19
rfoot -6.03615 5.28126
rtoes 7.20399
lfemur -75.6654 8.31665 -6.8268
ltibia 49.2673
lfoot -2.87842 9.38964
ltoes -24.765
112
root 5.10419 16.5482 -19.8093 118.1 5.10402 -187.76
lowerback 42.211 -0.339661 0.636819
upperback 22.7898 14.4677 -8.66529
thorax 8.58369 15.0443 -12.9094
lowerneck 21.1142 -11.7016 -13.161
upperneck 0.791886 -18.904 19.3315
head 0.00551515 -10.5965 8.8088
rclavicle 1.66979e-014 9.54166e-014
rhumerus -1.41304 13.5162 -75.8348
rradius 114.522
rwrist 4.76266
rhand -19.1334 2.30434
rfingers 7.12502
rthumb 7.17636 -27.554
lclavicle 1.66979e-014 9.54166e-014
lhumerus -43.6728 2.40366 94.6357
lradius 14.5062
lwrist 22.4609
lhand -11.4328 -29.3996
lfingers 7.12502
lthumb 14.6036 0.0662092
rfemur 46.125 4.54241 19.8858
rtibia 34.4154
rfoot -7.08884 5.44281
rtoes 6.91783
lfemur -76.3429 8.77997 -7.85281
ltibia 53.3278
lfoot 0.111733 10.2075
ltoes -24.2126
113
root 5.07063 16.5035 -19.9219 117.893 5.1844 -187.858
lowerback 41.693 -0.345238 0.454864
upperback 22.977 14.3704 -8.69092
thorax 8.91946 14.9758 -12.7067
lowerneck 21.8205 -11.5745 -12.8718
upperneck -0.145908 -18.5827 19.6164
head -0.431626 -10.4923 8.97796
rclavicle 3.18055e-014 3.18055e-015
rhumerus -3.99555 13.9542 -75.5726
rradius 114.863
rwrist 4.80874
rhand -19.4068 2.01571
rfingers 7.12502
rthumb 6.91247 -27.8514
lclavicle 3.18055e-014 3.18055e-015
lhumerus -44.0322 4.44853 94.8058
lradius 14.4784
lwrist 23.3366
lhand -11.9094 -29.4047
lfingers 7.12502
lthumb 14.1443 0.0937951
rfemur 46.0684 4.5567 19.5577
rtibia 35.662
rfoot -8.12991 5.50219
rtoes 6.61989
lfemur -77.162 9.05848 -8.56178
ltibia 57.5731
lfoot 3.70111 10.373
ltoes -23.0205
114
root 5.04002 16.4681 -20.0116 117.895 5.22804 -187.989
lowerback 41.1012 -0.303073 0.271559
upperback 23.0988 14.2859 -8.7271
thorax 9.20376 14.8827 -12.5253
lowerneck 22.3472 -11.5332 -12.5197
upperneck -0.942083 -18.3564 19.7709
head -0.801095 -10.4199 9.07134
rclavicle -2.70347e-014 1.95604e-013
rhumerus -6.73614 14.3287 -75.4751
rradius 115.241
rwrist 5.05353
rhand -19.5419 1.84499
rfingers 7.12502
rthumb 6.78201 -28.0264
lclavicle -2.70347e-014 1.95604e-013
lhumerus -44.4943 6.3003 94.8148
lradius 14.9399
lwrist 23.8635
lhand -12.2425 -29.8348
lfingers 7.12502
lthumb 13.8233 -0.314136
rfemur 45.734 4.59649 19.1991
rtibia 36.8756
rfoot -9.09491 5.50934
rtoes 6.1331
lfemur -77.9933 9.26421 -9.16221
ltibia 61.909
lfoot 7.35437 9.8213
ltoes -21.5438
115
root 5.01072 16.4344 -20.0877 118.114 5.22661 -188.126
lowerback 40.4519 -0.232598 0.0910601
upperback 23.1515 14.1942 -8.78442
thorax 9.42552 14.7582 -12.3779
lowerneck 22.7357 -11.5258 -12.1434
upperneck -1.63999 -18.1697 19.8969
head -1.11913 -10.3608 9.13454
rclavicle -1.38354e-013 8.42847e-014
rhumerus -9.62754 14.6022 -75.6052
rradius 115.54
rwrist 5.46571
rhand -19.5641 1.95337
rfingers 7.12502
rthumb 6.76057 -27.9187
lclavicle -1.38354e-013 8.42847e-014
lhumerus -44.986 7.83213 94.7199
lradius 15.7726
lwrist 24.1109
lhand -12.3396 -30.6182
lfingers 7.12502
lthumb 13.7298 -1.09119
rfemur 45.1527 4.62973 18.801
rtibia 38.032
rfoot -9.90603 5.4914
rtoes 5.99922
lfemur -78.8025 9.42826 -9.76975
ltibia 66.092
lfoot 10.5677 8.55923
ltoes -23.109
116
root 4.98174 16.4062 -20.1467 118.415 5.20614 -188.287
lowerback 39.8772 -0.142893 -0.107086
upperback 23.1396 14.0899 -8.84617
thorax 9.54232 14.6058 -12.2505
lowerneck 23.079 -11.4988 -11.897
upperneck -2.25352 -17.9994 20.0557
head -1.38859 -10.31 9.21811
rclavicle 5.64548e-014 -1.04958e-013
rhumerus -12.5958 14.7179 -75.9847
rradius 115.701
rwrist 6.05322
rhand -19.3814 2.34588
rfingers 7.12502
rthumb 6.93698 -27.5205
lclavicle 5.64548e-014 -1.04958e-013
lhumerus -45.4623 9.16413 94.5185
lradius 16.7796
lwrist 23.9003
lhand -12.2998 -31.6435
lfingers 7.12502
lthumb 13.7681 -2.1191
rfemur 44.4878 4.76534 18.5616
rtibia 39.0927
rfoot -10.5456 5.26301
rtoes 5.79855
lfemur -79.402 9.55958 -10.362
ltibia 69.9984
lfoot 13.8656 5.75492
ltoes -25.2901
117
root 4.95648 16.388 -20.185 118.831 5.1079 -188.46
lowerback 39.3319 -0.0509843 -0.350554
upperback 23.0729 13.9553 -8.93955
thorax 9.57867 14.4218 -12.1459
lowerneck 23.2664 -11.4739 -11.7049
upperneck -2.71904 -17.8581 20.2041
head -1.58285 -10.266 9.28373
rclavicle -6.44062e-014 6.99722e-014
rhumerus -15.5934 14.7042 -76.5644
rradius 115.764
rwrist 6.67347
rhand -19.0079 2.90097
rfingers 7.12502
rthumb 7.2975 -26.9532
lclavicle -6.44062e-014 6.99722e-014
lhumerus -45.7898 10.2725 94.1601
lradius 17.7206
lwrist 23.2608
lhand -12.0608 -32.8758
lfingers 7.12502
lthumb 13.9984 -3.36717
rfemur 43.717 4.91246 18.3507
rtibia 40.0288
rfoot -11.0314 4.88375
rtoes 5.54971
lfemur -79.7642 9.67517 -11.064
ltibia 73.5263
lfoot 16.772 1.89079
ltoes -28.8841
118
root 4.93578 16.3809 -20.207 119.352 4.91879 -188.584
lowerback 38.8009 0.0390278 -0.627816
upperback 22.9632 13.7828 -9.02366
thorax 9.54222 14.1959 -12.0178
lowerneck 23.3898 -11.424 -11.6165
upperneck -3.07734 -17.7274 20.4005
head -1.72142 -10.2279 9.36792
rclavicle 3.97569e-015 -1.33583e-013
rhumerus -18.6697 14.6206 -77.2615
rradius 115.816
rwrist 7.2556
rhand -18.4767 3.55455
rfingers 7.12502
rthumb 7.81021 -26.2812
lclavicle 3.97569e-015 -1.33583e-013
lhumerus -46.0264 10.7246 94.0308
lradius 18.7909
lwrist 22.6939
lhand -11.8643 -34.0403
lfingers 7.12502
lthumb 14.1878 -4.54476
rfemur 42.896 4.99924 18.1463
rtibia 40.7813
rfoot -11.3609 4.48949
rtoes 5.38225
lfemur -79.8983 9.76356 -11.9086
ltibia 76.6894
lfoot 18.3019 -2.2919
ltoes -31.8505
119
root 4.92133 16.3826 -20.2203 119.956 4.61865 -188.602
lowerback 38.2404 0.103237 -0.920429
upperback 22.8505 13.57 -9.07882
thorax 9.49501 13.9379 -11.8373
lowerneck 23.3778 -11.3981 -11.5449
upperneck -3.33326 -17.6393 20.5705
head -1.80317 -10.2023 9.42712
rclavicle 4.37326e-014 5.725e-014
rhumerus -21.7771 14.4664 -78.0432
rradius 115.832
rwrist 7.74284
rhand -17.9067 4.19381
rfingers 7.12502
rthumb 8.36038 -25.6207
lclavicle 4.37326e-014 5.725e-014
lhumerus -46.1458 10.383 94.2403
lradius 20.0518
lwrist 22.5036
lhand -11.9068 -34.9382
lfingers 7.12502
lthumb 14.1468 -5.43988
rfemur 42.079 4.96044 17.9757
rtibia 41.3601
rfoot -11.5628 3.98193
rtoes 5.26869
lfemur -79.8175 9.76866 -12.8709
ltibia 79.5138
lfoot 18.538 -6.26943
ltoes -35.11
